<?xml version="1.0" encoding="utf-8"?>
<!-- Generator: Adobe Illustrator 16.0.0, SVG Export Plug-In . SVG Version: 6.00 Build 0)  -->
<!DOCTYPE svg PUBLIC "-//W3C//DTD SVG 1.1//EN" "http://www.w3.org/Graphics/SVG/1.1/DTD/svg11.dtd">
<svg version="1.1" id="Layer_1" xmlns="http://www.w3.org/2000/svg" xmlns:xlink="http://www.w3.org/1999/xlink" x="0px" y="0px"
	 width="8418.9px" height="2834.65px" preserveAspectRatio="xMinYMin meet" viewBox="0 0 8418.9 2834.65" enable-background="new 0 0 8418.9 2834.65"
	 xml:space="preserve">
<text transform="matrix(1.0237 0 0 1 4370.9355 1709.7344)" fill="#020202" font-family="'CenturyGothic-Bold'" font-size="447.6023">factor tree</text>
<g>
	<g>
		<path d="M4007.336,1389.58c46.619,0,84.547,36.779,84.547,81.986v299.414l-572.93-0.043v-299.371
			c0-45.207,37.938-81.986,84.57-81.986H4007.336 M4007.336,1364.58h-403.813c-60.508,0-109.57,47.896-109.57,106.986v324.369
			l622.93,0.047v-324.416C4116.883,1412.477,4067.852,1364.58,4007.336,1364.58L4007.336,1364.58z"/>
	</g>
</g>
<path fill="none" stroke="#000000" stroke-width="50" stroke-linejoin="bevel" stroke-miterlimit="10" d="M3825.867,1970.697
	v-355.322c0-42.217,35.031-76.463,78.227-76.463h147.172"/>
<path fill="none" stroke="#000000" stroke-width="50" stroke-linejoin="bevel" stroke-miterlimit="10" d="M3825.867,1970.697
	v-215.141c0-42.193,35.031-76.416,78.227-76.416h109.398"/>
<path fill="none" stroke="#000000" stroke-width="50" stroke-linejoin="bevel" stroke-miterlimit="10" d="M3785.266,1970.697
	v-355.322c0-42.217-35.031-76.463-78.25-76.463h-147.172"/>
<path d="M4385.88,1798.287c1.089,20.177,31.614,52.351,14.174,158.688c3.632,25.084,39.983,14.901,39.251,2.181
	c-0.729-12.722-20.34-144.33-20.715-159.779C4418.215,1783.93,4384.789,1778.111,4385.88,1798.287z"/>
<path d="M4646.458,1897.349c24.697,5.461,45.067-14.905,14.53-18.175c-30.529-3.269-73.406-6.909-111.928,4.729
	c-38.529,11.63-7.27,25.083,13.804,27.623c16.723,2.914,147.558,9.092,149.009,21.456c2.179,20.354-206.436,16.359-229.688,15.992
	c-23.257,1.822-15.981,17.085,6.542,17.085c22.54,0.007,278.395,10.546,251.494-37.808
	c-19.625-27.631-163.541-24.718-154.817-34.176C4586.131,1891.17,4622.474,1890.805,4646.458,1897.349z"/>
<path d="M4857.234,1872.629c-19.625,0-79.945,4.727-89.4,51.629c-5.095,40.718,29.795,41.809,50.883,43.623
	c33.423,1.09,65.418-21.453,65.418-21.453s18.179,17.09,42.164,19.998c23.985,2.904,39.965-6.545,61.768-19.633
	c21.805-13.088,2.912-17.449-10.168-15.636c-13.084,1.825-42.887,13.813-55.246,11.998c-12.352-1.815-21.793-36.358-24.701-45.807
	C4895.037,1887.904,4892.857,1875.178,4857.234,1872.629z"/>
<path d="M5023.688,1804.286c-2.178,26.538-2.905,147.96-0.723,158.143c2.18,10.173,29.072,3.997,29.072,3.997
	s104.662-18.542,124.287-49.078c8.723-12.356,10.914-30.905-35.611-38.174c-46.523-7.269-86.496,21.087-86.496,21.087
	s-1.448-85.074-2.906-97.431C5049.856,1790.475,5025.869,1782.474,5023.688,1804.286z"/>
<path d="M5209.767,1907.897c-5.817,1.089-17.444,14.176,6.542,19.631c9.443,1.448,12.35,1.815,12.35,1.815
	s3.271,30.895,63.234,35.624c0,0,71.955,5.096,87.953-3.995c7.988-1.816,18.159-20.719-10.179-15.994
	c-20.354,2.909-28.348,7.991-69.774,4.363c-41.431-3.639-37.072-20.723-37.072-20.723s79.227-2.915,103.208-17.093
	c5.821-3.629,13.087-4.72,2.915-18.896c-4.36-3.64-17.453-23.999-68.328-20.001c-50.876,4-69.775,40.355-69.775,40.355
	S5215.577,1906.807,5209.767,1907.897z"/>
<path d="M5437.986,1812.277c2.915,20.361,5.094,51.991,0,125.791c1.447,22.904,26.168,29.081,39.985,30.537
	c13.797,1.458,51.598-13.095,69.776-18.54c18.158-5.447,1.447-14.911-15.266-11.997c-16.728,2.914-47.248,16.724-58.873,11.631
	c-11.636-5.087-4.371-116.337-3.646-130.511C5470.695,1805.014,5446.71,1791.555,5437.986,1812.277z"/>
<path d="M5640.291,1794.104c-18.896,2.183-45.791,18.542-4.364,18.542c41.433,0,260.942-3.635,276.94,69.8
	c5.807,50.537-303.82,72.347-337.263,83.98c-33.437,11.629,37.801,7.635,37.801,7.635s344.52-18.177,324.169-95.25
	C5910.688,1783.93,5659.189,1791.924,5640.291,1794.104z"/>
<path d="M5984.09,1889.355c-9.445,23.993-15.998,62.888,8.725,74.523c24.717,11.64,78.503-3.266,92.313-8.362
	c27.615-11.629,0.723-16.716-12.358-15.27c-13.086,1.459-47.974,9.452-57.417,7.271c-9.452-2.177,0.715-50.533-0.734-60.344
	C6013.172,1877.359,5993.535,1865.363,5984.09,1889.355z"/>
<path d="M6019.066,1846.819c-11.631,3.64-17.447,17.085,19.623,11.631c37.07-5.452,55.227-10.538,69.045-20.354
	c13.818-9.815-7.277-18.544-19.627-16.726C6075.76,1823.189,6030.69,1843.184,6019.066,1846.819z"/>
<path d="M6174.518,1875.178c-29.059,8-53.778,19.27-60.33,36.349c-13.807,53.441,40.707,54.899,50.152,55.623
	c23.262,2.181,67.598-19.631,67.598-19.631s15.253,19.631,42.153,19.631c26.897,0,42.885-8.726,62.51-21.813
	c19.626-13.087-1.458-17.451-14.538-15.27c-13.087,2.183-39.242,15.277-53.782,12.363c-14.54-2.904-26.178-46.534-29.077-56.346
	C6236.308,1876.269,6203.576,1867.178,6174.518,1875.178z"/>
<path d="M6358.406,1876.269c-14.52,0-37.808,14.901-3.639,17.45c34.178,2.548,87.953,2.181,87.953,2.181s-75.603,40.71-83.59,50.17
	c-18.889,20.356,23.26,19.632,23.26,19.632s196.973-1.822,218.775-3.272c21.807-1.456,67.598-15.27,47.975-16.726
	c-19.627-1.458-239.86,1.456-239.86,1.456l66.149-44.717c0,0,20.35-18.176-23.26-23.632
	C6430.361,1875.178,6370.033,1875.54,6358.406,1876.269z"/>
<path fill="#FFFFFF" d="M4825.26,1896.99c-17.44,5.452-47.237,27.632-26.165,43.627c41.429,14.175,60.32-16.359,60.32-16.359
	S4881.221,1884.627,4825.26,1896.99z"/>
<path fill="#FFFFFF" d="M5121.812,1892.265c-50.885-2.181-66.872,56.716-66.872,56.716s58.148-6.913,91.579-31.998
	C5148.703,1915.892,5172.696,1894.447,5121.812,1892.265z"/>
<path fill="#FFFFFF" d="M5348.586,1896.622c-0.734-3.269-15.996-15.633-51.607-8.724c-35.616,6.91-42.156,26.899-39.975,27.265
	C5330.407,1914.44,5349.32,1899.896,5348.586,1896.622z"/>
<path fill="#FFFFFF" d="M6175.984,1896.267c0,0-29.798-3.637-35.615,29.804c-5.813,33.453,53.063,12.362,58.15,5.82
	C6230.5,1894.809,6175.984,1896.267,6175.984,1896.267z"/>
</svg>
