<?xml version="1.0" encoding="utf-8"?>
<!-- Generator: Adobe Illustrator 16.0.0, SVG Export Plug-In . SVG Version: 6.00 Build 0)  -->
<!DOCTYPE svg PUBLIC "-//W3C//DTD SVG 1.1//EN" "http://www.w3.org/Graphics/SVG/1.1/DTD/svg11.dtd">
<svg version="1.1" id="Layer_1" xmlns="http://www.w3.org/2000/svg" xmlns:xlink="http://www.w3.org/1999/xlink" x="0px" y="0px"
	 width="200px" height="50px" preserveAspectRatio="xMinYMin meet" viewBox="0 0 8418.9 2834.65" enable-background="new 0 0 8418.9 2834.65"
	 xml:space="preserve">
<text transform="matrix(1.0237 0 0 1 2435.2324 1582.3994)" fill="#020202" font-family="'CenturyGothic-Bold'" font-size="1131.3412">factor tree</text>
<g>
	<g>
		<path d="M1516.212,769.999c29.489,0,58.049,5.621,84.886,16.706c25.859,10.681,49.071,25.961,68.992,45.418
			c40.631,39.684,63.008,92.348,63.008,148.291v759.976l-1454.492-0.109V980.413c0-55.933,22.387-108.594,63.038-148.283
			c19.93-19.459,43.151-34.742,69.018-45.424c26.842-11.085,55.404-16.707,84.89-16.707H1516.212 M1516.212,709.999H495.552
			c-152.937,0-276.946,121.062-276.946,270.414v819.862l1574.492,0.118v-819.98C1793.098,831.061,1669.168,709.999,1516.212,709.999
			L1516.212,709.999z"/>
	</g>
</g>
<path fill="none" stroke="#000000" stroke-width="125" stroke-linejoin="bevel" stroke-miterlimit="10" d="M1057.539,2241.996
	v-898.098c0-106.706,88.543-193.264,197.722-193.264h371.985"/>
<path fill="none" stroke="#000000" stroke-width="125" stroke-linejoin="bevel" stroke-miterlimit="10" d="M1057.539,2241.996
	v-543.78c0-106.646,88.543-193.146,197.722-193.146h276.511"/>
<path fill="none" stroke="#000000" stroke-width="125" stroke-linejoin="bevel" stroke-miterlimit="10" d="M954.916,2241.996
	v-898.098c0-106.706-88.544-193.264-197.782-193.264H385.148"/>
<path d="M2446.182,1773.995c2.756,51.074,80.023,132.517,35.877,401.685c9.193,63.494,101.208,37.721,99.353,5.522
	c-1.843-32.204-51.482-365.339-52.432-404.447C2528.032,1737.656,2443.422,1722.926,2446.182,1773.995z"/>
<path d="M3105.775,2024.749c62.517,13.823,114.08-37.731,36.78-46.005c-77.277-8.274-185.811-17.49-283.315,11.97
	c-97.532,29.44-18.405,63.496,34.938,69.92c42.329,7.376,373.509,23.017,377.184,54.312c5.512,51.524-522.546,41.411-581.409,40.482
	c-58.873,4.614-40.452,43.244,16.562,43.244c57.052,0.021,704.691,26.699,636.603-95.701
	c-49.682-69.939-413.969-62.564-391.888-86.506C2953.072,2009.109,3045.065,2008.182,3105.775,2024.749z"/>
<path d="M3639.311,1962.175c-49.676,0-202.363,11.963-226.3,130.688c-12.893,103.067,75.417,105.83,128.801,110.422
	c84.602,2.762,165.588-54.307,165.588-54.307s46.017,43.264,106.729,50.621c60.717,7.354,101.162-16.566,156.351-49.692
	c55.195-33.132,7.377-44.171-25.736-39.58c-33.122,4.618-108.558,34.963-139.846,30.372c-31.262-4.598-55.16-92.036-62.524-115.95
	C3734.994,2000.84,3729.481,1968.625,3639.311,1962.175z"/>
<path d="M4060.645,1789.18c-5.512,67.176-7.35,374.532-1.827,400.305c5.519,25.75,73.586,10.115,73.586,10.115
	s264.934-46.932,314.609-124.228c22.079-31.278,27.626-78.23-90.144-96.628c-117.761-18.402-218.945,53.376-218.945,53.376
	s-3.665-215.347-7.358-246.626C4126.886,1754.222,4066.168,1733.97,4060.645,1789.18z"/>
<path d="M4531.664,2051.449c-14.728,2.761-44.161,35.886,16.563,49.691c23.9,3.666,31.255,4.596,31.255,4.596
	s8.28,78.201,160.066,90.175c0,0,182.14,12.897,222.634-10.116c20.217-4.593,45.963-52.441-25.766-40.482
	c-51.527,7.364-71.756,20.229-176.621,11.044c-104.871-9.209-93.836-52.454-93.836-52.454s200.54-7.378,261.246-43.269
	c14.735-9.185,33.125-11.944,7.379-47.83c-11.036-9.213-44.182-60.749-172.957-50.629
	c-128.783,10.125-176.621,102.151-176.621,102.151S4546.371,2048.689,4531.664,2051.449z"/>
<path d="M5109.35,1809.412c7.377,51.537,12.893,131.6,0,318.409c3.664,57.974,66.236,73.61,101.213,77.296
	c34.926,3.691,130.608-33.146,176.621-46.928c45.967-13.791,3.664-37.744-38.637-30.368
	c-42.347,7.377-119.598,42.331-149.024,29.438c-29.454-12.875-11.067-294.478-9.232-330.355
	C5192.145,1791.024,5131.432,1756.955,5109.35,1809.412z"/>
<path d="M5621.438,1763.406c-47.833,5.524-115.907,46.934-11.048,46.934c104.877,0,660.516-9.198,701.011,176.685
	c14.7,127.921-769.052,183.128-853.705,212.575c-84.635,29.438,95.687,19.325,95.687,19.325s872.07-46.007,820.563-241.101
	C6305.883,1737.656,5669.277,1757.889,5621.438,1763.406z"/>
<path d="M6491.688,2004.516c-23.908,60.732-40.495,159.187,22.083,188.638c62.564,29.462,198.713-8.266,233.668-21.166
	c69.902-29.437,1.828-42.315-31.283-38.651c-33.125,3.693-121.435,23.924-145.336,18.405c-23.929-5.509,1.809-127.911-1.861-152.744
	C6565.301,1974.15,6515.597,1943.785,6491.688,2004.516z"/>
<path d="M6580.223,1896.845c-29.439,9.214-44.164,43.246,49.67,29.44c93.834-13.801,139.793-26.676,174.773-51.522
	c34.976-24.846-18.42-46.938-49.683-42.337C6723.727,1837.031,6609.645,1887.642,6580.223,1896.845z"/>
<path d="M6973.713,1968.625c-73.557,20.252-136.131,48.778-152.713,92.009c-34.947,135.277,103.039,138.966,126.948,140.798
	c58.881,5.521,171.109-49.69,171.109-49.69s38.606,49.69,106.698,49.69c68.088,0,108.558-22.088,158.23-55.216
	c49.678-33.125-3.69-44.172-36.801-38.649c-33.123,5.524-99.328,38.67-136.137,31.295c-36.803-7.354-66.262-117.791-73.598-142.627
	C7130.116,1971.389,7047.268,1948.377,6973.713,1968.625z"/>
<path d="M7439.184,1971.389c-36.75,0-95.699,37.721-9.207,44.172c86.51,6.447,222.63,5.521,222.63,5.521
	s-191.368,103.048-211.591,126.994c-47.811,51.524,58.881,49.692,58.881,49.692s498.592-4.614,553.781-8.283
	c55.198-3.689,171.107-38.651,121.437-42.337c-49.684-3.69-607.154,3.686-607.154,3.686l167.442-113.189
	c0,0,51.512-46.011-58.879-59.819C7621.324,1968.625,7468.613,1969.543,7439.184,1971.389z"/>
<path fill="#FFFFFF" d="M3558.373,2023.841c-44.152,13.803-119.572,69.945-66.231,110.431
	c104.865,35.881,152.688-41.408,152.688-41.408S3700.024,1992.546,3558.373,2023.841z"/>
<path fill="#FFFFFF" d="M4309.025,2011.877c-128.805-5.518-169.276,143.564-169.276,143.564s147.196-17.5,231.815-80.994
	C4377.096,2071.685,4437.832,2017.403,4309.025,2011.877z"/>
<path fill="#FFFFFF" d="M4883.053,2022.91c-1.854-8.275-40.488-39.572-130.633-22.081c-90.151,17.49-106.706,68.089-101.188,69.013
	C4837.04,2068.01,4884.912,2031.196,4883.053,2022.91z"/>
<path fill="#FFFFFF" d="M6977.424,2022.008c0,0-75.425-9.204-90.153,75.442c-14.712,84.679,134.319,31.294,147.198,14.731
	C7115.416,2018.319,6977.424,2022.008,6977.424,2022.008z"/>
</svg>
