<?xml version="1.0" encoding="utf-8"?>
<!-- Generator: Adobe Illustrator 16.0.0, SVG Export Plug-In . SVG Version: 6.00 Build 0)  -->
<!DOCTYPE svg PUBLIC "-//W3C//DTD SVG 1.1//EN" "http://www.w3.org/Graphics/SVG/1.1/DTD/svg11.dtd">
<svg version="1.1" xmlns="http://www.w3.org/2000/svg" xmlns:xlink="http://www.w3.org/1999/xlink" x="0px" y="0px"
	 width="155.91px" height="232.44px" viewBox="0 0 155.91 232.44" enable-background="new 0 0 155.91 232.44" xml:space="preserve">
<g id="Layer_1" display="none">
	<text transform="matrix(1 -0.0038 0.0038 1 13.9629 84.8862)" display="inline"><tspan x="0" y="0" fill="#231F20" font-family="'MyriadHebrew-Bold'" font-size="9">- </tspan><tspan x="5.832" y="0" fill="#231F20" font-family="'MyriadHebrew-Bold'" font-size="10">100% algodón orgánico</tspan><tspan x="122.64" y="0" fill="#231F20" font-family="'MyriadHebrew-Bold'" font-size="9"> -</tspan><tspan x="22.474" y="12" fill="#231F20" font-family="'MyriadHebrew-Bold'" font-size="9">- </tspan><tspan x="28.306" y="12" fill="#231F20" font-family="'MyriadHebrew-Bold'" font-size="10">Cosido a mano</tspan><tspan x="100.165" y="12" fill="#231F20" font-family="'MyriadHebrew-Bold'" font-size="9"> -</tspan><tspan x="62.137" y="54.537" fill="#231F20" font-family="'MyriadHebrew-Regular'" font-size="7.743">  </tspan></text>
	<text transform="matrix(1 -0.0038 0.0038 1 17.0742 122.9395)" display="inline"><tspan x="0" y="0" font-family="'SegoePrint-Bold'" font-size="11">Esencia mediterránea</tspan><tspan x="29.181" y="17" font-family="'SegoePrint-Bold'" font-size="11">en tus pies</tspan><tspan x="88.01" y="17.001" font-family="'SegoePrint'" font-size="11"> </tspan></text>
	
		<text transform="matrix(1 0 0 1 50.0112 47.75)" display="inline" fill="#017C50" font-family="'CenturyGothic-Bold'" font-size="18.3162">factor tree</text>
	<text transform="matrix(1 0 0 1 122.041 60.1953)" display="inline"><tspan x="0" y="0" fill="#017C50" font-family="'MyriadHebrew-Bold'" font-size="10">    </tspan><tspan x="3.82" y="12" fill="#017C50" font-family="'MyriadHebrew-Regular'" font-size="10"> </tspan></text>
	<g display="inline">
		<g>
			<path fill="#017C50" d="M35.477,34.626c1.863,0,3.379,1.515,3.379,3.378V50.28l-22.9-0.002V38.004
				c0-1.863,1.516-3.378,3.38-3.378H35.477 M35.477,33.626H19.335c-2.419,0-4.38,1.96-4.38,4.378v13.273l24.9,0.002V38.004
				C39.855,35.586,37.896,33.626,35.477,33.626L35.477,33.626z"/>
		</g>
	</g>
	<path display="inline" fill="none" stroke="#017C50" stroke-width="2" stroke-linejoin="bevel" stroke-miterlimit="10" d="
		M28.223,58.429v-14.54c0-1.728,1.4-3.129,3.127-3.129h5.883"/>
	<path display="inline" fill="none" stroke="#017C50" stroke-width="2" stroke-linejoin="bevel" stroke-miterlimit="10" d="
		M28.223,58.429v-8.804c0-1.727,1.4-3.127,3.127-3.127h4.373"/>
	<path display="inline" fill="none" stroke="#017C50" stroke-width="2" stroke-linejoin="bevel" stroke-miterlimit="10" d="
		M26.6,58.429v-14.54c0-1.728-1.4-3.129-3.128-3.129h-5.883"/>
	<text transform="matrix(1 0 0 1 7.2129 173.9551)" display="inline"><tspan x="0" y="0" fill="#231F20" font-family="'MyriadHebrew-Bold'" font-size="9">         pinterest.com/factor_tree    </tspan><tspan x="24.471" y="14" fill="#231F20" font-family="'MyriadHebrew-Bold'" font-size="9">       /factortreedesign</tspan><tspan x="21.361" y="28" fill="#231F20" font-family="'MyriadHebrew-Bold'" font-size="9">        @factortreedesign</tspan><tspan x="11.07" y="42" fill="#231F20" font-family="'MyriadHebrew-Bold'" font-size="9">www.factortreedesign.com</tspan></text>
	<text transform="matrix(1 0 0 1 33.5957 202.7422)" display="inline" font-family="'FontAwesome'" font-size="11.714"></text>
	<text transform="matrix(1 0 0 1 33.3047 187.1836)" display="inline" font-family="'FontAwesome'" font-size="11.714"></text>
	<text transform="matrix(1 0 0 1 12.5396 174.8877)" display="inline" font-family="'FontAwesome'" font-size="12"></text>
	<path display="inline" fill="none" d="M23.563,115.094c-1.313,0.031-3.531,0.469-3.906,0.5s-0.906-0.188-1.219,0.125
		s0.25,0.906,0.25,0.906s-0.656,4.813-0.969,5.75c-0.063,1.156,1,0.906,1,0.906s4.063-0.281,4.625-0.5s1.031-1-0.156-1.125
		c-0.375-0.031-3.563,0.5-3.844,0.438s0.031-1.813,0.156-2s2.594-0.281,3.5-0.531s0.688-1.344-0.188-1.188
		c-0.594,0.063-3.156,0.438-3.156,0.438S19.969,117,20,116.656c0.75-0.344,3.469-0.281,3.906-0.438S24.875,115.063,23.563,115.094z"
		/>
	<path display="inline" fill="none" d="M28.5,118.031c0.281,0,1.219-0.844,0-1.313c-1.625-0.438-3.125,1.25-3.281,1.688
		c-0.875,2.063,2.688,2.531,2.5,3.094c-0.344,0.281,0,0.594-2.344,0.531c-0.438-0.156-1.281,0.406-0.5,1.094
		c0.219,0.438,4.563,0,4.063-1.969c-0.219-1.313-3.625-1.625-2.188-2.75C27.781,117.5,28.219,118.031,28.5,118.031z"/>
	<path display="inline" fill="none" d="M31.125,121.125c0.594-0.219,2.531-0.5,3.25-2.563c0-0.344,0.406-1.906-1.75-1.688
		c-3.063,1.281-2.938,4.188-2.906,4.375c0.75,3.75,4.781,1.156,5,0c0.281-1-0.656-0.438-0.656-0.438S31.375,123.313,31.125,121.125z
		"/>
	<path display="inline" fill="none" d="M35.906,118.156c0.063,2-0.313,3.406-0.344,4.125s0.906,0.688,1.094,0.594
		s0.906-2.125,2.188-3.5c0.813-0.781,1,0.188,1,0.188S39.781,122.5,41,122.594c1.031,0.094,1.656-0.719,1.438-1.125
		s-0.594,0.188-0.938-0.031s-0.563-2.594-0.844-3.125s-1.031-1.156-2.188-0.25c-0.813,0.688-1.438,2.219-1.438,2.219
		s0.375-1.813,0.25-2.469C37.25,117.469,36.469,116.563,35.906,118.156z"/>
	<path display="inline" fill="none" d="M46.313,118.875c0.75,1.031,1.25-0.156,1.125-0.688c-0.031-0.25-0.125-1.438-1.406-1.438
		c-2.656,0.844-3.219,4.438-3.094,4.875c0.688,2.75,3.656,1.094,4.438,0.25s-0.125-0.813-0.125-0.813s-2.875,2.031-3,0.156
		C44.156,119.5,45.719,118,46.031,118S46.125,118.313,46.313,118.875z"/>
	<path display="inline" fill="none" d="M49.406,117.938c0.219-1.469,1.781-0.563,1.375,0.156c-0.25,0.688-0.75,2.75-0.5,4.469
		c0.063,0.406-1.125,0.781-1.313,0.219S48.938,120.063,49.406,117.938z"/>
	<path display="inline" fill="none" d="M50.313,114.406c0.906-0.844,1.469,0.188,1.438,0.438c-0.063,0.938-0.844,0.938-1.094,0.906
		S49.656,114.969,50.313,114.406z"/>
	<path display="inline" fill="none" d="M56.594,117.531c0,0-0.375-1.219-1.938-0.406c-2.063,1.281-2.781,3.375-2.813,3.75
		c-0.219,2.625,1.625,1.969,1.813,1.875c1.188-0.25,2.094-1.75,2.094-1.75s-0.156,2.063,0.906,1.969c1.625-0.25,0.5-1.031,0.5-1.031
		s-0.5-0.656-0.25-2.469c0.219-0.969,0.25-1.156,0.25-1.563S56.594,117.531,56.594,117.531z"/>
	<path display="inline" fill="none" d="M72.938,121.5c1.156,0.563-0.281,1.375-0.781,1.125c-1.156-0.469-0.813-3.906-1.344-3.969
		s-1.688,4.281-2.938,3.719c-1.156-0.375-0.531-3.156-0.938-3.688c-0.156-0.094-2.063,2.531-2.438,4.094
		c-0.094,0.125-0.844,0.719-1.188-0.438c-0.313-0.969,0.281-4.5,0.25-4.938s0.906-0.969,1.188-0.031s-0.313,3.156-0.313,3.156
		s0.813-1.844,1.938-2.875s1.75,0.25,1.75,0.25l0.313,2.75c0,0,1.094-2.125,1.5-2.75c1.563-1.594,2.094-0.031,2.094-0.031
		S72.5,121.156,72.938,121.5z"/>
	<path display="inline" fill="none" d="M84.188,117.469c0,0-1.031-1.25-2.969,0.813c-2.906,3.438-0.625,4.375-0.5,4.531
		c1.406,0.469,3.156-1.844,3.156-1.844s-0.156,1.875,1.156,1.781c0.75,0,1.375-0.813,1.375-0.813s0.25-0.688-0.344-0.594
		c-0.125,0.063-0.813,0.563-1.063-0.156c-0.344-0.906,1.063-6.219,1.219-6.719s-0.5-1.625-1.219-0.344
		C84.75,114.781,84.188,117.469,84.188,117.469z"/>
	<path display="inline" fill="none" d="M91.906,117.25c0,0,0.313-1.344,0.5-2c0.438-0.844,1.313-0.188,1.25,0.125
		s-0.5,1.75-0.5,1.75s1.531-0.25,2.031-0.25c0.813,0.188,0.375,0.969-0.063,1s-2.25,0.406-2.25,0.406s-0.938,3.375-0.219,3.5
		s1.219-0.594,1.719-0.813s0.594,0.375,0.375,0.688s-1.188,1.625-2.688,1.156c-0.281-0.063-1.188-0.188-1-1.844
		c-0.031-0.406,0.5-2.656,0.5-2.656s-1.156,0.344-1.375-0.531c-0.125-0.5,0.719-0.438,0.719-0.438L91.906,117.25z"/>
	<path display="inline" fill="none" d="M106.344,118.281c0,0,1.344,0.75,0.688-0.969c-0.031-0.156-0.469-0.719-1.438-0.469
		s-2.5,2.938-2.5,2.938s0.438-1.313,0.469-2.344s-1.313-0.594-1.469,0.063s-0.313,3.938-0.063,5c0,0.25,1.25,1.125,1.438-0.531
		c0.094-0.281,0.063-1.781,1.969-3.656C105.844,117.75,106.344,118.281,106.344,118.281z"/>
	<path display="inline" fill="none" d="M115.563,115.594c-0.344,0.688,0.531,0.656,0.531,0.656s2-1.344,2.438-1.813
		s-0.063-1.031-0.406-0.906S115.906,114.906,115.563,115.594z"/>
	<path display="inline" fill="none" d="M69.938,134.563c-0.281,1.688-0.75,3.438-0.5,4.094c0.063,0.281,0.531,1.906,2.188,0.875
		c0.656-0.313,1.563-1.688,1.563-1.688s-0.031,1.719,0.656,2s1.063-0.188,0.969-0.531s-0.75-0.156-0.594-2.25
		c-0.031-0.594,0.25-1.5,0.375-2s-0.375-1.031-1.063-0.375c-0.25,0.469-0.719,3.219-2.625,3.906C70,138.5,71,135.5,71.219,134.938
		S70.688,133.313,69.938,134.563z"/>
	<path display="inline" fill="none" d="M86.75,136c0,0,0.375-0.875,0.156-2c-0.344-1.063-1.281-0.188-1.375,0.219
		c0.125,1.031-0.25,4.469-0.25,4.469s-0.719,3.781-0.719,4.156c0.594,1.281,1.125,0.469,1.281,0.219s0.594-3.719,0.594-3.719
		s0.844,1.625,3.75-1.344c2.219-3.219,0.563-4.271,0.063-4.219C88.333,133.667,86.75,136,86.75,136z"/>
</g>
<g id="Layer_2">
	<path fill="#020202" d="M23.479,115.177c-1.313,0.031-3.531,0.469-3.906,0.5s-0.906-0.188-1.219,0.125s0.25,0.906,0.25,0.906
		s-0.656,4.813-0.969,5.75c-0.063,1.156,1,0.906,1,0.906s4.063-0.281,4.625-0.5s1.031-1-0.156-1.125
		c-0.375-0.031-3.563,0.5-3.844,0.438s0.031-1.813,0.156-2s2.594-0.281,3.5-0.531s0.688-1.344-0.188-1.188
		c-0.594,0.063-3.156,0.438-3.156,0.438s0.313-1.813,0.344-2.156c0.75-0.344,3.469-0.281,3.906-0.438S24.792,115.146,23.479,115.177
		z"/>
	<path fill="#020202" d="M28.417,118.114c0.281,0,1.219-0.844,0-1.313c-1.625-0.438-3.125,1.25-3.281,1.688
		c-0.875,2.063,2.636,2.708,2.5,3.094s-0.667,0.636-2.344,0.531c-0.438-0.156-1.083,0.646-0.5,1.094s4.563,0,4.063-1.969
		c-0.219-1.313-3.625-1.625-2.188-2.75C27.698,117.583,28.136,118.114,28.417,118.114z"/>
	<path fill="#020202" d="M31.042,121.208c0.594-0.219,2.489-0.708,3.25-2.563c0.208-0.521,0.208-2.208-1.75-1.688
		c-2.542,0.761-2.896,3.739-2.906,4.375c0.521,3.386,4.781,1.156,5,0c0.281-1-0.656-0.438-0.656-0.438
		S31.292,123.396,31.042,121.208z"/>
	<path fill="#020202" d="M35.823,118.239c0.063,2-0.313,3.406-0.344,4.125s0.906,0.688,1.094,0.594s0.906-2.125,2.188-3.5
		c0.813-0.781,1,0.188,1,0.188s-0.063,2.938,1.156,3.031c1.031,0.094,1.656-0.719,1.438-1.125s-0.594,0.188-0.938-0.031
		s-0.563-2.594-0.844-3.125s-1.031-1.156-2.188-0.25c-0.813,0.688-1.438,2.219-1.438,2.219s0.375-1.813,0.25-2.469
		C37.167,117.552,36.386,116.646,35.823,118.239z"/>
	<path fill="#020202" d="M46.229,118.958c0.75,1.031,1.25-0.156,1.125-0.688c-0.031-0.25-0.125-1.438-1.406-1.438
		c-2.656,0.844-3.219,4.438-3.094,4.875c0.688,2.75,3.656,1.094,4.438,0.25s-0.125-0.813-0.125-0.813s-2.875,2.031-3,0.156
		c-0.094-1.719,1.469-3.219,1.781-3.219S46.042,118.396,46.229,118.958z"/>
	<path fill="#020202" d="M49.323,118.021c0.219-1.469,1.781-0.563,1.375,0.156c-0.25,0.688-0.75,2.75-0.5,4.469
		c0.063,0.406-1.125,0.781-1.313,0.219S48.854,120.146,49.323,118.021z"/>
	<path fill="#020202" d="M50.229,114.489c0.906-0.844,1.469,0.188,1.438,0.438c-0.063,0.938-0.844,0.938-1.094,0.906
		S49.573,115.052,50.229,114.489z"/>
	<path fill="#020202" d="M56.511,117.614c0,0-0.375-1.219-1.938-0.406c-2.063,1.281-2.781,3.375-2.813,3.75
		c-0.219,2.625,1.625,1.969,1.813,1.875c1.188-0.25,2.094-1.75,2.094-1.75s-0.156,2.063,0.906,1.969c1.625-0.25,0.5-1.031,0.5-1.031
		s-0.5-0.656-0.25-2.469c0.219-0.969,0.25-1.156,0.25-1.563S56.511,117.614,56.511,117.614z"/>
	<path fill="#020202" d="M72.854,121.583c1.156,0.563-0.281,1.375-0.781,1.125c-1.156-0.469-0.813-3.906-1.344-3.969
		s-1.688,4.281-2.938,3.719c-1.156-0.375-0.531-3.156-0.938-3.688c-0.156-0.094-2.063,2.531-2.438,4.094
		c-0.094,0.125-0.844,0.719-1.188-0.438c-0.313-0.969,0.281-4.5,0.25-4.938s0.906-0.969,1.188-0.031s-0.313,3.156-0.313,3.156
		s0.813-1.844,1.938-2.875s1.75,0.25,1.75,0.25l0.313,2.75c0,0,1.094-2.125,1.5-2.75c1.563-1.594,2.094-0.031,2.094-0.031
		S72.417,121.239,72.854,121.583z"/>
	<path fill="#020202" d="M84.104,117.552c0,0-1.031-1.25-2.969,0.813c-2.906,3.438-0.625,4.375-0.5,4.531
		c1.406,0.469,3.156-1.844,3.156-1.844s-0.156,1.875,1.156,1.781c0.75,0,1.375-0.813,1.375-0.813s0.25-0.688-0.344-0.594
		c-0.125,0.063-0.813,0.563-1.063-0.156c-0.344-0.906,1.063-6.219,1.219-6.719s-0.5-1.625-1.219-0.344
		C84.667,114.864,84.104,117.552,84.104,117.552z"/>
	<path fill="#020202" d="M91.823,117.333c0,0,0.313-1.344,0.5-2c0.438-0.844,1.313-0.188,1.25,0.125s-0.5,1.75-0.5,1.75
		s1.531-0.25,2.031-0.25c0.813,0.188,0.375,0.969-0.063,1s-2.25,0.406-2.25,0.406s-0.938,3.375-0.219,3.5s1.219-0.594,1.719-0.813
		s0.594,0.375,0.375,0.688s-1.188,1.625-2.688,1.156c-0.281-0.063-1.188-0.188-1-1.844c-0.031-0.406,0.5-2.656,0.5-2.656
		s-1.156,0.344-1.375-0.531c-0.125-0.5,0.719-0.438,0.719-0.438L91.823,117.333z"/>
	<path fill="#020202" d="M106.261,118.364c0,0,1.344,0.75,0.688-0.969c-0.031-0.156-0.469-0.719-1.438-0.469s-2.5,2.938-2.5,2.938
		s0.438-1.313,0.469-2.344s-1.313-0.594-1.469,0.063s-0.313,3.938-0.063,5c0,0.25,1.25,1.125,1.438-0.531
		c0.094-0.281,0.063-1.781,1.969-3.656C105.761,117.833,106.261,118.364,106.261,118.364z"/>
	<path fill="#020202" d="M115.479,115.677c-0.344,0.688,0.531,0.656,0.531,0.656s2-1.344,2.438-1.813s-0.063-1.031-0.406-0.906
		S115.823,114.989,115.479,115.677z"/>
	<path fill="#020202" d="M69.854,134.646c-0.281,1.688-0.75,3.438-0.5,4.094c0.063,0.281,0.531,1.906,2.188,0.875
		c0.656-0.313,1.563-1.688,1.563-1.688s-0.031,1.719,0.656,2s1.063-0.188,0.969-0.531s-0.75-0.156-0.594-2.25
		c-0.031-0.594,0.25-1.5,0.375-2s-0.375-1.031-1.063-0.375c-0.25,0.469-0.719,3.219-2.625,3.906
		c-0.906-0.094,0.094-3.094,0.313-3.656S70.604,133.396,69.854,134.646z"/>
	<path fill="#020202" d="M86.667,136.083c0,0,0.375-0.875,0.156-2c-0.344-1.063-1.281-0.188-1.375,0.219
		c0.125,1.031-0.25,4.469-0.25,4.469s-0.719,3.781-0.719,4.156c0.594,1.281,1.125,0.469,1.281,0.219s0.594-3.719,0.594-3.719
		s0.844,1.625,3.75-1.344c2.219-3.219,0.563-4.271,0.063-4.219C88.25,133.75,86.667,136.083,86.667,136.083z"/>
	<path fill="#020202" d="M75.459,121.125c0.594-0.219,2.489-0.708,3.25-2.563c0.208-0.521,0.208-2.208-1.75-1.688
		c-2.542,0.761-2.896,3.739-2.906,4.375c0.521,3.386,4.781,1.156,5,0c0.281-1-0.656-0.438-0.656-0.438
		S75.709,123.313,75.459,121.125z"/>
	<path fill="#020202" d="M87.99,117.771c0.219-1.469,1.781-0.563,1.375,0.156c-0.25,0.688-0.75,2.75-0.5,4.469
		c0.063,0.406-1.125,0.781-1.313,0.219S87.521,119.896,87.99,117.771z"/>
	<path fill="#020202" d="M88.896,114.239c0.906-0.844,1.469,0.188,1.438,0.438c-0.063,0.938-0.844,0.938-1.094,0.906
		S88.24,114.802,88.896,114.239z"/>
	<path fill="#020202" d="M97.042,120.958c0.594-0.219,2.489-0.708,3.25-2.563c0.208-0.521,0.208-2.208-1.75-1.688
		c-2.542,0.761-2.896,3.739-2.906,4.375c0.521,3.386,4.781,1.156,5,0c0.281-1-0.656-0.438-0.656-0.438
		S97.292,123.146,97.042,120.958z"/>
	<path fill="#020202" d="M112.178,118.28c0,0,1.344,0.75,0.688-0.969c-0.031-0.156-0.469-0.719-1.438-0.469s-2.5,2.938-2.5,2.938
		s0.438-1.313,0.469-2.344s-1.313-0.594-1.469,0.063s-0.313,3.938-0.063,5c0,0.25,1.25,1.125,1.438-0.531
		c0.094-0.281,0.063-1.781,1.969-3.656C111.678,117.749,112.178,118.28,112.178,118.28z"/>
	<path fill="#020202" d="M117.761,117.281c0,0-0.375-1.219-1.938-0.406c-2.063,1.281-2.781,3.375-2.813,3.75
		c-0.219,2.625,1.625,1.969,1.813,1.875c1.188-0.25,2.094-1.75,2.094-1.75s-0.156,2.063,0.906,1.969c1.625-0.25,0.5-1.031,0.5-1.031
		s-0.5-0.656-0.25-2.469c0.219-0.969,0.25-1.156,0.25-1.563S117.761,117.281,117.761,117.281z"/>
	<path fill="#020202" d="M119.99,117.905c0.063,2-0.313,3.406-0.344,4.125s0.906,0.688,1.094,0.594s0.906-2.125,2.188-3.5
		c0.813-0.781,1,0.188,1,0.188s-0.063,2.938,1.156,3.031c1.031,0.094,1.656-0.719,1.438-1.125s-0.594,0.188-0.938-0.031
		s-0.563-2.594-0.844-3.125s-1.031-1.156-2.188-0.25c-0.813,0.688-1.438,2.219-1.438,2.219s0.375-1.813,0.25-2.469
		C121.334,117.218,120.553,116.312,119.99,117.905z"/>
	<path fill="#020202" d="M128.376,120.875c0.594-0.219,2.489-0.708,3.25-2.563c0.208-0.521,0.208-2.208-1.75-1.688
		c-2.542,0.761-2.896,3.739-2.906,4.375c0.521,3.386,4.781,1.156,5,0c0.281-1-0.656-0.438-0.656-0.438
		S128.626,123.063,128.376,120.875z"/>
	<path fill="#020202" d="M137.594,117.115c0,0-0.375-1.219-1.938-0.406c-2.063,1.281-2.781,3.375-2.813,3.75
		c-0.219,2.625,1.625,1.969,1.813,1.875c1.188-0.25,2.094-1.75,2.094-1.75s-0.156,2.063,0.906,1.969c1.625-0.25,0.5-1.031,0.5-1.031
		s-0.5-0.656-0.25-2.469c0.219-0.969,0.25-1.156,0.25-1.563S137.594,117.115,137.594,117.115z"/>
	<path fill="#020202" d="M48.042,138.125c0.594-0.219,2.489-0.708,3.25-2.563c0.208-0.521,0.208-2.208-1.75-1.688
		c-2.542,0.761-2.896,3.739-2.906,4.375c0.521,3.386,4.781,1.156,5,0c0.281-1-0.656-0.438-0.656-0.438
		S48.292,140.313,48.042,138.125z"/>
	<path fill="#020202" d="M52.906,135.072c0.063,2-0.313,3.406-0.344,4.125s0.906,0.688,1.094,0.594s0.906-2.125,2.188-3.5
		c0.813-0.781,1,0.188,1,0.188s-0.063,2.938,1.156,3.031c1.031,0.094,1.656-0.719,1.438-1.125s-0.594,0.188-0.938-0.031
		s-0.563-2.594-0.844-3.125s-1.031-1.156-2.188-0.25c-0.813,0.688-1.438,2.219-1.438,2.219s0.375-1.813,0.25-2.469
		C54.25,134.385,53.469,133.479,52.906,135.072z"/>
	<path fill="#020202" d="M65.489,134.417c0,0,0.313-1.344,0.5-2c0.438-0.844,1.313-0.188,1.25,0.125s-0.5,1.75-0.5,1.75
		s1.531-0.25,2.031-0.25c0.813,0.188,0.375,0.969-0.063,1s-2.25,0.406-2.25,0.406s-0.938,3.375-0.219,3.5s1.219-0.594,1.719-0.813
		s0.594,0.375,0.375,0.688s-1.188,1.625-2.688,1.156c-0.281-0.063-1.188-0.188-1-1.844c-0.031-0.406,0.5-2.656,0.5-2.656
		s-1.156,0.344-1.375-0.531c-0.125-0.5,0.719-0.438,0.719-0.438L65.489,134.417z"/>
	<path fill="#020202" d="M79.5,134.864c0.281,0,1.219-0.844,0-1.313c-1.625-0.438-3.125,1.25-3.281,1.688
		c-0.875,2.063,2.688,2.531,2.5,3.094c-0.344,0.281,0,0.594-2.344,0.531c-0.438-0.156-1.281,0.406-0.5,1.094
		c0.219,0.438,4.563,0,4.063-1.969c-0.219-1.313-3.625-1.625-2.188-2.75C78.781,134.333,79.219,134.864,79.5,134.864z"/>
	<path fill="#020202" d="M92.823,134.771c0.219-1.469,1.781-0.563,1.375,0.156c-0.25,0.688-0.75,2.75-0.5,4.469
		c0.063,0.406-1.125,0.781-1.313,0.219S92.354,136.896,92.823,134.771z"/>
	<path fill="#020202" d="M93.729,131.239c0.906-0.844,1.469,0.188,1.438,0.438c-0.063,0.938-0.844,0.938-1.094,0.906
		S93.073,131.802,93.729,131.239z"/>
	<path fill="#020202" d="M96.542,137.958c0.594-0.219,2.489-0.708,3.25-2.563c0.208-0.521,0.208-2.208-1.75-1.688
		c-2.542,0.761-2.896,3.739-2.906,4.375c0.521,3.386,4.781,1.156,5,0c0.281-1-0.656-0.438-0.656-0.438
		S96.792,140.146,96.542,137.958z"/>
	<path fill="#020202" d="M104.417,134.697c0.281,0,1.219-0.844,0-1.313c-1.625-0.438-3.125,1.25-3.281,1.688
		c-0.875,2.063,2.688,2.531,2.5,3.094c-0.344,0.281,0,0.594-2.344,0.531c-0.438-0.156-1.281,0.406-0.5,1.094
		c0.219,0.438,4.563,0,4.063-1.969c-0.219-1.313-3.625-1.625-2.188-2.75C103.698,134.166,104.136,134.697,104.417,134.697z"/>
</g>
<g id="Layer_3">
	<path fill="#FFFFFF" d="M31.188,120.125c0,0,0.313-1.375,1.188-2c1.156-0.688,1.031,0.406,0.813,0.594
		C32.344,119.844,31.188,120.125,31.188,120.125z"/>
	<path fill="#FFFFFF" d="M54.906,118.25c1.188-0.813,0.938,0.531,0.875,0.844c-1.594,3.094-2.563,2.563-2.563,2.563
		S52.781,120.188,54.906,118.25z"/>
	<path fill="#FFFFFF" d="M75.375,120.125c0,0,0.313-1.375,1.188-2c1.156-0.688,1.031,0.406,0.813,0.594
		C76.531,119.844,75.375,120.125,75.375,120.125z"/>
	<path fill="#FFFFFF" d="M96.938,119.875c0,0,0.313-1.375,1.188-2c1.156-0.688,1.031,0.406,0.813,0.594
		C98.094,119.594,96.938,119.875,96.938,119.875z"/>
	<path fill="#FFFFFF" d="M128.25,119.813c0,0,0.313-1.375,1.188-2c1.156-0.688,1.031,0.406,0.813,0.594
		C129.406,119.531,128.25,119.813,128.25,119.813z"/>
	<path fill="#FFFFFF" d="M115.781,118.063c1.188-0.813,0.938,0.531,0.875,0.844c-1.594,3.094-2.563,2.563-2.563,2.563
		S113.656,120,115.781,118.063z"/>
	<path fill="#FFFFFF" d="M135.656,117.75c1.188-0.813,0.938,0.531,0.875,0.844c-1.594,3.094-2.563,2.563-2.563,2.563
		S133.531,119.688,135.656,117.75z"/>
	<path fill="#FFFFFF" d="M48,137.125c0,0,0.313-1.375,1.188-2c1.156-0.688,1.031,0.406,0.813,0.594
		C49.156,136.844,48,137.125,48,137.125z"/>
	<path fill="#FFFFFF" d="M82.75,118.313c1.344-0.719,1.313,0.438,0.938,1.125c-0.25,0.656-1.219,1.781-1.625,2
		c-1.344,0.969-1.063-0.625-0.906-1.063S81.875,118.781,82.75,118.313z"/>
	<path fill="#FFFFFF" d="M88.813,135.219c0.125-0.125,1.625-0.782,0.938,0.969s-1.594,2.406-2.031,2.531s-1.219,0.031-0.781-1.125
		C87.125,137.125,88.063,135.625,88.813,135.219z"/>
	<path fill="#FFFFFF" d="M96.601,136.726c0,0,0.313-1.375,1.188-2c1.156-0.688,1.031,0.406,0.813,0.594
		C97.757,136.444,96.601,136.726,96.601,136.726z"/>
</g>
</svg>
