<?xml version="1.0" encoding="UTF-8"?>
<svg width="239px" height="47px" viewBox="0 0 239 47" version="1.1" xmlns="http://www.w3.org/2000/svg" xmlns:xlink="http://www.w3.org/1999/xlink">
    <!-- Generator: Sketch 43.1 (39012) - http://www.bohemiancoding.com/sketch -->
    <title>factor-tree-logo</title>
    <desc>Created with Sketch.</desc>
    <defs></defs>
    <g id="Page-1" stroke="none" stroke-width="1" fill="none" fill-rule="evenodd">
        <g id="factor-tree-logo" transform="translate(0.000000, -6.000000)">
            <text id="factor-tree" fill="#020202" font-family="Helvetica" font-size="33.940236" font-weight="normal">
                <tspan x="66.4891523" y="33.0120479">factor tree</tspan>
            </text>
            <path d="M38.9300713,8.59701024 C39.8143713,8.59701024 40.6708129,8.76656801 41.4755862,9.10094764 C42.2510317,9.42314058 42.9471005,9.88406261 43.5444806,10.4709841 C44.7629008,11.6680541 45.43393,13.2566665 45.43393,14.9441901 L45.43393,37.8689072 L1.81741957,37.8656192 L1.81741957,14.9441599 C1.81741957,13.256938 2.48874868,11.6684161 3.70776863,10.4711952 C4.30541857,9.88421343 5.00175721,9.42320091 5.77744266,9.1009778 C6.58236587,8.76659818 7.4388675,8.59701024 8.32307754,8.59701024 L38.9300713,8.59701024 L38.9300713,8.59701024 Z M38.9300713,6.787107 L8.32307754,6.787107 C3.73688645,6.787107 0.0181723965,10.4389488 0.0181723965,14.9441599 L0.0181723965,39.6753415 L47.2331772,39.678901 L47.2331772,14.9441599 C47.2331772,10.4389488 43.5168321,6.787107 38.9300713,6.787107 L38.9300713,6.787107 Z" id="Shape" fill="#000000" fill-rule="nonzero"></path>
            <path d="M25.1756363,52.9998793 L25.1756363,25.9087046 C25.1756363,22.6899124 27.8308153,20.0788856 31.1048154,20.0788856 L42.2596981,20.0788856" id="Shape" stroke="#000000" stroke-width="3.75" stroke-linejoin="bevel"></path>
            <path d="M25.1756363,52.9998793 L25.1756363,36.5967262 C25.1756363,33.3797439 27.8308153,30.7704667 31.1048154,30.7704667 L39.396676,30.7704667" id="Shape" stroke="#000000" stroke-width="3.75" stroke-linejoin="bevel"></path>
            <path d="M22.0982339,52.9998793 L22.0982339,25.9087046 C22.0982339,22.6899124 19.4430248,20.0788856 16.1672555,20.0788856 L5.01234279,20.0788856" id="Shape" stroke="#000000" stroke-width="3.75" stroke-linejoin="bevel"></path>
            <path d="M66.8175029,38.8826039 C66.9001483,40.4232538 69.2171888,42.8799863 67.8933627,50.9994536 C68.1690374,52.9147536 70.9283029,52.1373096 70.8727061,51.166025 C70.8174393,50.1945896 69.3288921,40.1455544 69.300404,38.9658594 C69.2719459,37.786436 66.7347375,37.3421047 66.8175029,38.8826039 Z" id="Shape" fill="#000000" fill-rule="nonzero"></path>
            <path d="M86.5970169,46.4466118 C88.4717425,46.8635834 90.0179856,45.3084542 87.6999555,45.0588685 C85.3826151,44.8092829 82.1279568,44.5312817 79.2040602,45.4199442 C76.279324,46.3080034 78.6521412,47.3353045 80.2517619,47.5290848 C81.5211008,47.7515822 91.4523454,48.2233939 91.5625493,49.1674092 C91.7278402,50.7216335 75.8927257,50.4165743 74.1275743,50.3885509 C72.362123,50.5277325 72.9145218,51.6930085 74.6242265,51.6930085 C76.3350706,51.693642 95.7561147,52.4983853 93.714329,48.8061827 C92.2244923,46.696469 81.3004531,46.9189363 81.962636,46.1967245 C82.0178429,45.9748304 84.7764487,45.9468674 86.5970169,46.4466118 Z" id="Shape" fill="#000000" fill-rule="nonzero"></path>
            <path d="M102.596403,44.5590637 C101.106746,44.5590637 96.5280517,44.9199283 95.810242,48.5012743 C95.4236138,51.610296 98.0718058,51.693642 99.672656,51.8321599 C102.209654,51.9154758 104.638218,50.1939863 104.638218,50.1939863 C104.638218,50.1939863 106.018151,51.4990472 107.838749,51.7209715 C109.659497,51.9428054 110.87234,51.2212573 112.527317,50.2220097 C114.182475,49.2225811 112.748535,48.8895891 111.75556,49.0280768 C110.762316,49.1673791 108.500182,50.0827376 107.561935,49.9442499 C106.624467,49.8055509 105.907827,47.1679789 105.686999,46.4466118 C105.465692,45.7253956 105.300371,44.7536283 102.596403,44.5590637 Z" id="Shape" fill="#000000" fill-rule="nonzero"></path>
            <path d="M115.231136,39.3406602 C115.065845,41.3670279 115.010698,50.6384382 115.176349,51.4158822 C115.34185,52.1926323 117.383006,51.7210017 117.383006,51.7210017 C117.383006,51.7210017 125.327702,50.3052954 126.817328,47.9736574 C127.479421,47.0301548 127.645762,45.6138452 124.114139,45.0588685 C120.582787,44.5037712 117.548537,46.6689585 117.548537,46.6689585 C117.548537,46.6689585 117.438632,40.1730046 117.327889,39.2294718 C117.217535,38.2861503 115.396757,37.6752476 115.231136,39.3406602 Z" id="Shape" fill="#000000" fill-rule="nonzero"></path>
            <path d="M129.355796,47.2520188 C128.914141,47.3353045 128.03152,48.3345219 129.852478,48.7509505 C130.569179,48.8615356 130.789736,48.8895891 130.789736,48.8895891 C130.789736,48.8895891 131.038032,51.2485265 135.589708,51.6097228 C135.589708,51.6097228 141.051623,51.9987615 142.265935,51.3045731 C142.872191,51.166025 143.644248,49.7226875 141.493278,50.0834314 C139.948114,50.3055669 139.341498,50.6936403 136.196864,50.4165743 C133.05205,50.1387843 133.382961,48.8342965 133.382961,48.8342965 C133.382961,48.8342965 139.396645,48.6117388 141.217063,47.5290848 C141.658928,47.2520188 142.210398,47.1687934 141.438341,46.0862903 C141.107399,45.8083796 140.113435,44.2537934 136.251801,44.5590637 C132.389927,44.8644849 130.955387,47.6404542 130.955387,47.6404542 C130.955387,47.6404542 129.796822,47.1687632 129.355796,47.2520188 Z" id="Shape" fill="#000000" fill-rule="nonzero"></path>
            <path d="M146.679128,39.9509596 C146.900345,41.505576 147.065756,43.9206807 146.679128,49.5557843 C146.789002,51.3045731 148.665377,51.7762339 149.714248,51.8874223 C150.76159,51.9987615 153.630849,50.8875714 155.010662,50.4718367 C156.389095,50.0558304 155.120536,49.3332869 153.852037,49.5557843 C152.582128,49.7783119 150.265597,50.8327012 149.383187,50.4437832 C148.499936,50.0554081 149.051315,41.5608384 149.106342,40.4786067 C149.161939,39.3962846 147.341311,38.3685913 146.679128,39.9509596 Z" id="Shape" fill="#000000" fill-rule="nonzero"></path>
            <path d="M162.035343,38.5631861 C160.600953,38.7298179 158.559587,39.9789528 161.704041,39.9789528 C164.849036,39.9789528 181.511234,39.7014946 182.725576,45.3086653 C183.166391,49.1674092 159.663665,50.8327314 157.125137,51.7210017 C154.587149,52.6090006 159.994547,52.3039414 159.994547,52.3039414 C159.994547,52.3039414 186.145705,50.9161377 184.601141,45.0311167 C182.560105,37.786436 163.469913,38.3967655 162.035343,38.5631861 Z" id="Shape" fill="#000000" fill-rule="nonzero"></path>
            <path d="M188.131924,45.8362823 C187.414984,47.6682664 186.917582,50.6381668 188.794137,51.5265578 C190.670272,52.4152806 194.753033,51.2772134 195.801245,50.8880842 C197.897428,50.0001155 195.856062,49.61165 194.863147,49.7221747 C193.869813,49.8335743 191.221591,50.4438435 190.504891,50.2773625 C189.787321,50.1111833 190.559138,46.4189203 190.449084,45.6698315 C190.33939,44.9202903 188.848894,44.0043284 188.131924,45.8362823 Z" id="Shape" fill="#000000" fill-rule="nonzero"></path>
            <path d="M190.786863,42.5883808 C189.904062,42.8663216 189.462497,43.8928987 192.27634,43.47644 C195.090182,43.060132 196.468376,42.671757 197.517337,41.922276 C198.566178,41.1727951 196.964968,40.5063887 196.02744,40.6451781 C195.090182,40.7840882 191.669154,42.3107718 190.786863,42.5883808 Z" id="Shape" fill="#000000" fill-rule="nonzero"></path>
            <path d="M202.586626,44.7536283 C200.380839,45.364531 198.504404,46.2250194 198.007152,47.5290848 C196.95918,51.6097228 201.097029,51.7210017 201.813969,51.7762641 C203.57966,51.9428054 206.945122,50.2773625 206.945122,50.2773625 C206.945122,50.2773625 208.102818,51.7762641 210.144723,51.7762641 C212.186509,51.7762641 213.400101,51.1099784 214.889638,50.1106705 C216.379355,49.111453 214.778984,48.7782197 213.78607,48.9448213 C212.792795,49.111453 210.807476,50.1113039 209.703668,49.8888367 C208.60004,49.6670028 207.716639,46.3356648 207.496651,45.5864855 C207.276723,44.8370046 204.792353,44.1428463 202.586626,44.7536283 Z" id="Shape" fill="#000000" fill-rule="nonzero"></path>
            <path d="M216.544915,44.8370046 C215.442877,44.8370046 213.675146,45.9748606 216.268821,46.1694553 C218.863036,46.3639294 222.944928,46.3359966 222.944928,46.3359966 C222.944928,46.3359966 217.206289,49.4444451 216.599852,50.1667775 C215.166122,51.7210017 218.365544,51.6657393 218.365544,51.6657393 C218.365544,51.6657393 233.317048,51.5265578 234.972025,51.4158822 C236.627303,51.3046033 240.103088,50.2499727 238.613612,50.1387843 C237.123685,50.0274752 220.40661,50.2499727 220.40661,50.2499727 L225.427769,46.8356204 C225.427769,46.8356204 226.972482,45.4476961 223.662138,45.031177 C222.00683,44.7536283 217.427416,44.7813199 216.544915,44.8370046 Z" id="Shape" fill="#000000" fill-rule="nonzero"></path>
            <path d="M100.169278,46.419222 C98.8452721,46.8355902 96.5836184,48.5291167 98.1831792,49.7503791 C101.327813,50.8327314 102.761903,48.5013045 102.761903,48.5013045 C102.761903,48.5013045 104.417031,45.4752066 100.169278,46.419222 Z" id="Shape" fill="#FFFFFF" fill-rule="nonzero"></path>
            <path d="M122.67942,46.0583273 C118.816856,45.8918765 117.603264,50.3889431 117.603264,50.3889431 C117.603264,50.3889431 122.017297,49.8610546 124.554805,47.9457547 C124.720696,47.8624388 126.542014,46.2250194 122.67942,46.0583273 Z" id="Shape" fill="#FFFFFF" fill-rule="nonzero"></path>
            <path d="M139.893057,46.3911383 C139.837461,46.1415225 138.678925,45.1974468 135.975706,45.7250637 C133.272308,46.2526505 132.775865,47.7789721 132.941336,47.8068446 C138.513245,47.7515822 139.948804,46.6410859 139.893057,46.3911383 Z" id="Shape" fill="#FFFFFF" fill-rule="nonzero"></path>
            <path d="M202.697909,46.3639294 C202.697909,46.3639294 200.436136,46.0862903 199.99442,48.6396414 C199.553275,51.193988 204.022335,49.5836266 204.408543,49.0840028 C206.835938,46.2526505 202.697909,46.3639294 202.697909,46.3639294 Z" id="Shape" fill="#FFFFFF" fill-rule="nonzero"></path>
        </g>
    </g>
</svg>