<?xml version="1.0" encoding="utf-8"?>
<!-- Generator: Adobe Illustrator 16.0.0, SVG Export Plug-In . SVG Version: 6.00 Build 0)  -->
<!DOCTYPE svg PUBLIC "-//W3C//DTD SVG 1.1//EN" "http://www.w3.org/Graphics/SVG/1.1/DTD/svg11.dtd">
<svg version="1.1" id="Layer_1" xmlns="http://www.w3.org/2000/svg" xmlns:xlink="http://www.w3.org/1999/xlink" x="0px" y="0px"
	 viewBox="0 0 581.1 141.73" enable-background="new 0 0 581.1 141.73" xml:space="preserve">
<g id="Layer_2">
	<g>
		<path d="M103.347,6.456c15.539,0,28.181,12.642,28.181,28.181v70.305c0,15.539-12.642,28.182-28.181,28.182H33.04
			c-15.539,0-28.181-12.643-28.181-28.182V34.636c0-15.539,12.642-28.181,28.181-28.181H103.347 M103.347,3.456H33.04
			c-17.221,0-31.181,13.96-31.181,31.181v70.305c0,17.221,13.96,31.182,31.181,31.182h70.307c17.221,0,31.181-13.961,31.181-31.182
			V34.636C134.526,17.416,120.566,3.456,103.347,3.456L103.347,3.456z"/>
	</g>
</g>
<g id="Layer_6">
	<g enable-background="new    ">
		<path d="M192.206,32.216v5.352c-2.006-0.859-3.725-1.289-5.156-1.289c-1.068,0-1.953,0.215-2.656,0.645s-1.146,0.925-1.328,1.484
			c-0.183,0.561-0.273,2.051-0.273,4.473l-0.005,5.742h8.872v4.727h-8.876l-0.03,37.774h-5.469V53.349h-5.586v-4.727h5.586v-6.641
			c0-3.047,0.279-5.221,0.84-6.523c0.56-1.302,1.51-2.35,2.852-3.145c1.341-0.794,2.962-1.191,4.863-1.191
			C187.609,31.123,189.731,31.488,192.206,32.216z"/>
		<path d="M242.167,48.623v42.5h-5.391v-7.305c-2.292,2.787-4.863,4.883-7.715,6.289s-5.971,2.109-9.355,2.109
			c-6.016,0-11.152-2.182-15.41-6.543s-6.387-9.668-6.387-15.918c0-6.119,2.148-11.354,6.445-15.703
			c4.297-4.349,9.466-6.523,15.508-6.523c3.489,0,6.646,0.742,9.473,2.227c2.825,1.484,5.306,3.711,7.441,6.68v-7.813H242.167z
			 M220.312,52.802c-3.043,0-5.853,0.748-8.428,2.244c-2.576,1.495-4.624,3.597-6.146,6.302s-2.282,5.566-2.282,8.583
			c0,2.993,0.767,5.854,2.302,8.584c1.534,2.73,3.596,4.857,6.184,6.379s5.365,2.283,8.331,2.283c2.991,0,5.826-0.754,8.506-2.264
			c2.679-1.508,4.74-3.551,6.184-6.125c1.443-2.576,2.166-5.477,2.166-8.702c0-4.916-1.619-9.025-4.858-12.33
			C229.032,54.455,225.045,52.802,220.312,52.802z"/>
		<path d="M295.722,57.451l-4.336,2.695c-3.746-4.974-8.857-7.461-15.334-7.461c-5.176,0-9.475,1.665-12.895,4.994
			c-3.421,3.33-5.131,7.375-5.131,12.135c0,3.096,0.787,6.01,2.36,8.741c1.573,2.73,3.733,4.852,6.477,6.359
			c2.744,1.51,5.82,2.264,9.227,2.264c6.243,0,11.341-2.486,15.295-7.461l4.336,2.852c-2.031,3.059-4.76,5.432-8.184,7.117
			c-3.425,1.688-7.324,2.531-11.699,2.531c-6.719,0-12.292-2.135-16.719-6.406c-4.428-4.271-6.641-9.467-6.641-15.586
			c0-4.114,1.035-7.936,3.105-11.465c2.07-3.528,4.915-6.282,8.535-8.262c3.619-1.979,7.669-2.969,12.148-2.969
			c2.813,0,5.527,0.43,8.145,1.289s4.837,1.979,6.66,3.359C292.896,53.558,294.445,55.316,295.722,57.451z"/>
		<path d="M310.995,32.841h5.469v15.781h8.672v4.727h-8.672v37.774h-5.469V53.349h-7.461v-4.727h7.461V32.841z"/>
		<path d="M353.456,47.529c6.548,0,11.974,2.37,16.278,7.109c3.913,4.323,5.87,9.44,5.87,15.352c0,5.938-2.067,11.127-6.202,15.567
			s-9.451,6.66-15.946,6.66c-6.522,0-11.851-2.221-15.985-6.66s-6.202-9.629-6.202-15.567c0-5.885,1.956-10.989,5.87-15.313
			C341.442,49.912,346.882,47.529,353.456,47.529z M353.437,52.88c-4.547,0-8.454,1.68-11.722,5.039
			c-3.266,3.359-4.899,7.422-4.899,12.188c0,3.073,0.745,5.938,2.234,8.594s3.502,4.707,6.037,6.152
			c2.534,1.445,5.317,2.168,8.35,2.168c3.031,0,5.814-0.723,8.35-2.168c2.534-1.445,4.547-3.496,6.037-6.152
			c1.489-2.656,2.234-5.521,2.234-8.594c0-4.766-1.64-8.828-4.92-12.188S357.957,52.88,353.437,52.88z"/>
		<path d="M383.651,48.623h5.586v6.211c1.666-2.447,3.424-4.277,5.273-5.488c1.849-1.211,3.775-1.816,5.781-1.816
			c1.51,0,3.125,0.482,4.844,1.445l-2.852,4.609c-1.146-0.494-2.109-0.742-2.891-0.742c-1.823,0-3.581,0.749-5.273,2.246
			c-1.693,1.498-2.982,3.822-3.867,6.973c-0.678,2.422-1.016,7.318-1.016,14.688v14.375h-5.586V48.623z"/>
		<path d="M436.698,32.841h5.469v15.781h8.672v4.727h-8.672v37.774h-5.469V53.349h-7.461v-4.727h7.461V32.841z"/>
		<path d="M456.972,48.623h5.586v6.211c1.666-2.447,3.424-4.277,5.273-5.488c1.849-1.211,3.775-1.816,5.781-1.816
			c1.51,0,3.125,0.482,4.844,1.445l-2.852,4.609c-1.146-0.494-2.109-0.742-2.891-0.742c-1.823,0-3.581,0.749-5.273,2.246
			c-1.693,1.498-2.982,3.822-3.867,6.973c-0.678,2.422-1.016,7.318-1.016,14.688v14.375h-5.586V48.623z"/>
		<path d="M518.886,77.021l4.609,2.422c-1.512,2.969-3.258,5.365-5.239,7.188s-4.209,3.209-6.686,4.16
			c-2.477,0.949-5.279,1.426-8.406,1.426c-6.934,0-12.355-2.271-16.266-6.816c-3.909-4.545-5.864-9.682-5.864-15.411
			c0-5.391,1.655-10.195,4.966-14.414c4.195-5.364,9.813-8.047,16.851-8.047c7.246,0,13.032,2.748,17.358,8.242
			c3.076,3.881,4.64,8.725,4.692,14.531h-38.242c0.104,4.936,1.682,8.983,4.731,12.139c3.051,3.158,6.818,4.736,11.304,4.736
			c2.163,0,4.269-0.377,6.315-1.129s3.787-1.752,5.222-2.996C515.666,81.807,517.217,79.797,518.886,77.021z M518.886,65.576
			c-0.729-2.916-1.792-5.247-3.188-6.992c-1.395-1.744-3.239-3.15-5.533-4.219c-2.295-1.067-4.707-1.602-7.235-1.602
			c-4.173,0-7.758,1.342-10.756,4.023c-2.19,1.953-3.847,4.883-4.967,8.789H518.886z"/>
		<path d="M570.878,77.021l4.609,2.422c-1.512,2.969-3.258,5.365-5.239,7.188s-4.209,3.209-6.686,4.16
			c-2.477,0.949-5.279,1.426-8.406,1.426c-6.934,0-12.355-2.271-16.266-6.816c-3.909-4.545-5.864-9.682-5.864-15.411
			c0-5.391,1.655-10.195,4.966-14.414c4.195-5.364,9.813-8.047,16.851-8.047c7.246,0,13.032,2.748,17.358,8.242
			c3.076,3.881,4.64,8.725,4.692,14.531h-38.242c0.104,4.936,1.682,8.983,4.731,12.139c3.051,3.158,6.818,4.736,11.304,4.736
			c2.163,0,4.269-0.377,6.315-1.129s3.787-1.752,5.222-2.996C567.658,81.807,569.209,79.797,570.878,77.021z M570.878,65.576
			c-0.729-2.916-1.792-5.247-3.188-6.992c-1.395-1.744-3.239-3.15-5.533-4.219c-2.295-1.067-4.707-1.602-7.235-1.602
			c-4.173,0-7.758,1.342-10.756,4.023c-2.19,1.953-3.847,4.883-4.967,8.789H570.878z"/>
	</g>
</g>
<g id="Layer_4">
	<g>
		<path d="M102.501,14.456c11.633,0,21.096,9.463,21.096,21.094V92.41H12.764V35.549c0-11.631,9.463-21.094,21.095-21.094H102.501
			 M102.501,11.456H33.857c-13.308,0-24.095,10.788-24.095,24.094V95.41h116.833V35.549
			C126.597,22.243,115.809,11.456,102.501,11.456L102.501,11.456z"/>
	</g>
	<path fill="none" stroke="#000000" stroke-width="5.5" stroke-miterlimit="10" d="M25.829,46.894h25.896
		c7.827,0,14.173,6.347,14.173,14.173v66.222"/>
	<path fill="none" stroke="#000000" stroke-width="5.5" stroke-miterlimit="10" d="M111.264,46.895H85.368
		c-7.827,0-14.173,6.347-14.173,14.173v66.221"/>
	<path fill="none" stroke="#000000" stroke-width="5.5" stroke-miterlimit="10" d="M103.264,71.895H85.368
		c-7.827,0-14.173,6.347-14.173,14.173v41.221"/>
</g>
</svg>
